<svg xmlns="http://www.w3.org/2000/svg" viewBox="0 0 324 312.86"><defs><style>.cls-1{fill:#ccc;}.cls-2{fill:#fff;}</style></defs><title>bg_sp</title><g id="レイヤー_2" data-name="レイヤー 2"><g id="レイヤー_1-2" data-name="レイヤー 1"><rect class="cls-1" x="10" y="-1.14" width="304" height="324" transform="translate(322.86 -1.14) rotate(90)"/><rect class="cls-2" x="2" y="9.8" width="320" height="300"/><circle class="cls-1" cx="17.74" cy="24.6" r="5.2"/><rect class="cls-1" x="16.36" width="2.77" height="22.18"/><circle class="cls-1" cx="41.79" cy="24.6" r="5.2"/><rect class="cls-1" x="40.4" width="2.77" height="22.18"/><circle class="cls-1" cx="65.83" cy="24.6" r="5.2"/><rect class="cls-1" x="64.44" width="2.77" height="22.18"/><circle class="cls-1" cx="89.87" cy="24.6" r="5.2"/><rect class="cls-1" x="88.49" width="2.77" height="22.18"/><circle class="cls-1" cx="113.91" cy="24.6" r="5.2"/><rect class="cls-1" x="112.53" width="2.77" height="22.18"/><circle class="cls-1" cx="137.96" cy="24.6" r="5.2"/><rect class="cls-1" x="136.57" width="2.77" height="22.18"/><circle class="cls-1" cx="162" cy="24.6" r="5.2"/><rect class="cls-1" x="160.61" width="2.77" height="22.18"/><circle class="cls-1" cx="186.04" cy="24.6" r="5.2"/><rect class="cls-1" x="184.66" width="2.77" height="22.18"/><circle class="cls-1" cx="210.09" cy="24.6" r="5.2"/><rect class="cls-1" x="208.7" width="2.77" height="22.18"/><circle class="cls-1" cx="234.13" cy="24.6" r="5.2"/><rect class="cls-1" x="232.74" width="2.77" height="22.18"/><circle class="cls-1" cx="258.17" cy="24.6" r="5.2"/><rect class="cls-1" x="256.78" width="2.77" height="22.18"/><circle class="cls-1" cx="282.21" cy="24.6" r="5.2"/><rect class="cls-1" x="280.83" width="2.77" height="22.18"/><circle class="cls-1" cx="306.26" cy="24.6" r="5.2"/><rect class="cls-1" x="304.87" width="2.77" height="22.18"/></g></g></svg>