<svg xmlns="http://www.w3.org/2000/svg" viewBox="0 0 666 690"><defs><style>.cls-1{fill:#ccc;}.cls-2{fill:#fff;}</style></defs><title>bg_tab_1</title><g id="レイヤー_2" data-name="レイヤー 2"><g id="レイヤー_1-2" data-name="レイヤー 1"><rect class="cls-1" x="22" width="644" height="690"/><rect class="cls-2" x="24" y="1" width="640" height="686"/><rect class="cls-1" y="50.5" width="50" height="5.53"/><rect class="cls-1" y="59.97" width="50" height="5.53"/><rect class="cls-1" y="102.5" width="50" height="5.53"/><rect class="cls-1" y="111.97" width="50" height="5.53"/><rect class="cls-1" y="154.5" width="50" height="5.53"/><rect class="cls-1" y="163.97" width="50" height="5.53"/><rect class="cls-1" y="206.5" width="50" height="5.53"/><rect class="cls-1" y="215.97" width="50" height="5.53"/><rect class="cls-1" y="258.5" width="50" height="5.53"/><rect class="cls-1" y="267.97" width="50" height="5.53"/><rect class="cls-1" y="310.5" width="50" height="5.53"/><rect class="cls-1" y="319.97" width="50" height="5.53"/><rect class="cls-1" y="362.5" width="50" height="5.53"/><rect class="cls-1" y="371.97" width="50" height="5.53"/><rect class="cls-1" y="414.5" width="50" height="5.53"/><rect class="cls-1" y="423.97" width="50" height="5.53"/><rect class="cls-1" y="466.5" width="50" height="5.53"/><rect class="cls-1" y="475.97" width="50" height="5.53"/><rect class="cls-1" y="518.5" width="50" height="5.53"/><rect class="cls-1" y="527.97" width="50" height="5.53"/><rect class="cls-1" y="570.5" width="50" height="5.53"/><rect class="cls-1" y="579.97" width="50" height="5.53"/><rect class="cls-1" y="622.5" width="50" height="5.53"/><rect class="cls-1" y="631.97" width="50" height="5.53"/><rect class="cls-1" x="39" y="47" width="22" height="22"/><rect class="cls-1" x="39" y="99" width="22" height="22"/><rect class="cls-1" x="39" y="151" width="22" height="22"/><rect class="cls-1" x="39" y="203" width="22" height="22"/><rect class="cls-1" x="39" y="255" width="22" height="22"/><rect class="cls-1" x="39" y="307" width="22" height="22"/><rect class="cls-1" x="39" y="359" width="22" height="22"/><rect class="cls-1" x="39" y="411" width="22" height="22"/><rect class="cls-1" x="39" y="463" width="22" height="22"/><rect class="cls-1" x="39" y="515" width="22" height="22"/><rect class="cls-1" x="39" y="567" width="22" height="22"/><rect class="cls-1" x="39" y="619" width="22" height="22"/></g></g></svg>